<mxfile host="app.diagrams.net" modified="2024-05-19T17:28:48.938Z" agent="Mozilla/5.0 (X11; Linux x86_64) AppleWebKit/537.36 (KHTML, like Gecko) Chrome/125.0.0.0 Safari/537.36" etag="3GcugLDxbeUbb0f0CUZx" version="24.4.4" type="device">
  <diagram name="Pagina-1" id="6wYWoWbMFvWgPppuWPaa">
    <mxGraphModel dx="1920" dy="1087" grid="1" gridSize="10" guides="1" tooltips="1" connect="1" arrows="1" fold="1" page="1" pageScale="1" pageWidth="827" pageHeight="1169" math="0" shadow="0">
      <root>
        <mxCell id="0" />
        <mxCell id="1" parent="0" />
        <mxCell id="k8iYPbFDE1tUV-0o-wm9-1" value="" style="rounded=0;whiteSpace=wrap;html=1;fillColor=#f8cecc;strokeColor=#000000;" parent="1" vertex="1">
          <mxGeometry x="200" y="200" width="200" height="200" as="geometry" />
        </mxCell>
        <mxCell id="k8iYPbFDE1tUV-0o-wm9-2" value="" style="rounded=0;whiteSpace=wrap;html=1;fillColor=#f8cecc;gradientDirection=radial;fillStyle=auto;strokeColor=#000000;" parent="1" vertex="1">
          <mxGeometry x="200" y="200" width="80" height="80" as="geometry" />
        </mxCell>
        <mxCell id="k8iYPbFDE1tUV-0o-wm9-3" value="" style="rounded=0;whiteSpace=wrap;html=1;fillColor=#d5e8d4;strokeColor=#000000;" parent="1" vertex="1">
          <mxGeometry x="280" y="200" width="80" height="80" as="geometry" />
        </mxCell>
        <mxCell id="k8iYPbFDE1tUV-0o-wm9-4" value="" style="rounded=0;whiteSpace=wrap;html=1;fillColor=#dae8fc;strokeColor=#000000;" parent="1" vertex="1">
          <mxGeometry x="200" y="280" width="80" height="80" as="geometry" />
        </mxCell>
        <mxCell id="k8iYPbFDE1tUV-0o-wm9-5" value="" style="rounded=0;whiteSpace=wrap;html=1;fillColor=#fff2cc;strokeColor=#000000;" parent="1" vertex="1">
          <mxGeometry x="280" y="280" width="80" height="80" as="geometry" />
        </mxCell>
        <mxCell id="k8iYPbFDE1tUV-0o-wm9-6" value="" style="rounded=0;whiteSpace=wrap;html=1;fillColor=#f8cecc;strokeColor=#000000;" parent="1" vertex="1">
          <mxGeometry x="360" y="200" width="40" height="80" as="geometry" />
        </mxCell>
        <mxCell id="k8iYPbFDE1tUV-0o-wm9-7" value="" style="rounded=0;whiteSpace=wrap;html=1;fillColor=#dae8fc;strokeColor=#000000;" parent="1" vertex="1">
          <mxGeometry x="360" y="280" width="40" height="80" as="geometry" />
        </mxCell>
        <mxCell id="k8iYPbFDE1tUV-0o-wm9-8" value="" style="rounded=0;whiteSpace=wrap;html=1;fillColor=#f8cecc;strokeColor=#000000;" parent="1" vertex="1">
          <mxGeometry x="200" y="360" width="80" height="40" as="geometry" />
        </mxCell>
        <mxCell id="k8iYPbFDE1tUV-0o-wm9-9" value="" style="rounded=0;whiteSpace=wrap;html=1;fillColor=#d5e8d4;strokeColor=#000000;" parent="1" vertex="1">
          <mxGeometry x="280" y="360" width="80" height="40" as="geometry" />
        </mxCell>
        <mxCell id="k8iYPbFDE1tUV-0o-wm9-10" value="" style="rounded=0;whiteSpace=wrap;html=1;fillColor=#ffe6cc;strokeColor=#000000;" parent="1" vertex="1">
          <mxGeometry x="200" y="560" width="200" height="200" as="geometry" />
        </mxCell>
        <mxCell id="k8iYPbFDE1tUV-0o-wm9-13" value="" style="rounded=0;whiteSpace=wrap;html=1;fillColor=#b0e3e6;strokeColor=#000000;" parent="1" vertex="1">
          <mxGeometry x="200" y="640" width="200" height="80" as="geometry" />
        </mxCell>
        <mxCell id="k8iYPbFDE1tUV-0o-wm9-17" value="" style="rounded=0;whiteSpace=wrap;html=1;fillColor=#ffe6cc;strokeColor=#000000;" parent="1" vertex="1">
          <mxGeometry x="200" y="720" width="200" height="40" as="geometry" />
        </mxCell>
        <mxCell id="k8iYPbFDE1tUV-0o-wm9-19" value="B&lt;sub&gt;00&lt;/sub&gt;" style="text;html=1;align=center;verticalAlign=middle;whiteSpace=wrap;rounded=0;" parent="1" vertex="1">
          <mxGeometry x="200" y="560" width="40" height="40" as="geometry" />
        </mxCell>
        <mxCell id="k8iYPbFDE1tUV-0o-wm9-21" value="B&lt;sub&gt;01&lt;/sub&gt;" style="text;html=1;align=center;verticalAlign=middle;whiteSpace=wrap;rounded=0;" parent="1" vertex="1">
          <mxGeometry x="240" y="560" width="40" height="40" as="geometry" />
        </mxCell>
        <mxCell id="k8iYPbFDE1tUV-0o-wm9-22" value="B&lt;sub&gt;02&lt;/sub&gt;" style="text;html=1;align=center;verticalAlign=middle;whiteSpace=wrap;rounded=0;" parent="1" vertex="1">
          <mxGeometry x="280" y="560" width="40" height="40" as="geometry" />
        </mxCell>
        <mxCell id="k8iYPbFDE1tUV-0o-wm9-23" value="B&lt;sub&gt;03&lt;/sub&gt;" style="text;html=1;align=center;verticalAlign=middle;whiteSpace=wrap;rounded=0;" parent="1" vertex="1">
          <mxGeometry x="320" y="560" width="40" height="40" as="geometry" />
        </mxCell>
        <mxCell id="k8iYPbFDE1tUV-0o-wm9-24" value="B&lt;sub&gt;04&lt;/sub&gt;" style="text;html=1;align=center;verticalAlign=middle;whiteSpace=wrap;rounded=0;" parent="1" vertex="1">
          <mxGeometry x="360" y="560" width="40" height="40" as="geometry" />
        </mxCell>
        <mxCell id="k8iYPbFDE1tUV-0o-wm9-25" value="B&lt;sub&gt;10&lt;/sub&gt;" style="text;html=1;align=center;verticalAlign=middle;whiteSpace=wrap;rounded=0;" parent="1" vertex="1">
          <mxGeometry x="200" y="600" width="40" height="40" as="geometry" />
        </mxCell>
        <mxCell id="k8iYPbFDE1tUV-0o-wm9-26" value="B&lt;sub&gt;11&lt;/sub&gt;" style="text;html=1;align=center;verticalAlign=middle;whiteSpace=wrap;rounded=0;" parent="1" vertex="1">
          <mxGeometry x="240" y="600" width="40" height="40" as="geometry" />
        </mxCell>
        <mxCell id="k8iYPbFDE1tUV-0o-wm9-27" value="B&lt;sub&gt;12&lt;/sub&gt;" style="text;html=1;align=center;verticalAlign=middle;whiteSpace=wrap;rounded=0;" parent="1" vertex="1">
          <mxGeometry x="280" y="600" width="40" height="40" as="geometry" />
        </mxCell>
        <mxCell id="k8iYPbFDE1tUV-0o-wm9-28" value="B&lt;sub&gt;13&lt;/sub&gt;" style="text;html=1;align=center;verticalAlign=middle;whiteSpace=wrap;rounded=0;" parent="1" vertex="1">
          <mxGeometry x="320" y="600" width="40" height="40" as="geometry" />
        </mxCell>
        <mxCell id="k8iYPbFDE1tUV-0o-wm9-29" value="B&lt;sub&gt;14&lt;/sub&gt;" style="text;html=1;align=center;verticalAlign=middle;whiteSpace=wrap;rounded=0;" parent="1" vertex="1">
          <mxGeometry x="360" y="600" width="40" height="40" as="geometry" />
        </mxCell>
        <mxCell id="k8iYPbFDE1tUV-0o-wm9-31" value="B&lt;sub&gt;20&lt;/sub&gt;" style="text;html=1;align=center;verticalAlign=middle;whiteSpace=wrap;rounded=0;" parent="1" vertex="1">
          <mxGeometry x="200" y="640" width="40" height="40" as="geometry" />
        </mxCell>
        <mxCell id="k8iYPbFDE1tUV-0o-wm9-32" value="B&lt;sub&gt;21&lt;/sub&gt;" style="text;html=1;align=center;verticalAlign=middle;whiteSpace=wrap;rounded=0;" parent="1" vertex="1">
          <mxGeometry x="240" y="640" width="40" height="40" as="geometry" />
        </mxCell>
        <mxCell id="k8iYPbFDE1tUV-0o-wm9-33" value="B&lt;sub&gt;22&lt;/sub&gt;" style="text;html=1;align=center;verticalAlign=middle;whiteSpace=wrap;rounded=0;" parent="1" vertex="1">
          <mxGeometry x="280" y="640" width="40" height="40" as="geometry" />
        </mxCell>
        <mxCell id="k8iYPbFDE1tUV-0o-wm9-34" value="B&lt;sub&gt;23&lt;/sub&gt;" style="text;html=1;align=center;verticalAlign=middle;whiteSpace=wrap;rounded=0;" parent="1" vertex="1">
          <mxGeometry x="320" y="640" width="40" height="40" as="geometry" />
        </mxCell>
        <mxCell id="k8iYPbFDE1tUV-0o-wm9-35" value="B&lt;sub&gt;24&lt;/sub&gt;" style="text;html=1;align=center;verticalAlign=middle;whiteSpace=wrap;rounded=0;" parent="1" vertex="1">
          <mxGeometry x="360" y="640" width="40" height="40" as="geometry" />
        </mxCell>
        <mxCell id="k8iYPbFDE1tUV-0o-wm9-36" value="B&lt;sub&gt;30&lt;/sub&gt;" style="text;html=1;align=center;verticalAlign=middle;whiteSpace=wrap;rounded=0;" parent="1" vertex="1">
          <mxGeometry x="200" y="680" width="40" height="40" as="geometry" />
        </mxCell>
        <mxCell id="k8iYPbFDE1tUV-0o-wm9-37" value="B&lt;sub&gt;31&lt;/sub&gt;" style="text;html=1;align=center;verticalAlign=middle;whiteSpace=wrap;rounded=0;" parent="1" vertex="1">
          <mxGeometry x="240" y="680" width="40" height="40" as="geometry" />
        </mxCell>
        <mxCell id="k8iYPbFDE1tUV-0o-wm9-38" value="B&lt;sub&gt;32&lt;/sub&gt;" style="text;html=1;align=center;verticalAlign=middle;whiteSpace=wrap;rounded=0;" parent="1" vertex="1">
          <mxGeometry x="280" y="680" width="40" height="40" as="geometry" />
        </mxCell>
        <mxCell id="k8iYPbFDE1tUV-0o-wm9-39" value="B&lt;sub&gt;33&lt;/sub&gt;" style="text;html=1;align=center;verticalAlign=middle;whiteSpace=wrap;rounded=0;" parent="1" vertex="1">
          <mxGeometry x="320" y="680" width="40" height="40" as="geometry" />
        </mxCell>
        <mxCell id="k8iYPbFDE1tUV-0o-wm9-40" value="B&lt;sub&gt;34&lt;/sub&gt;" style="text;html=1;align=center;verticalAlign=middle;whiteSpace=wrap;rounded=0;" parent="1" vertex="1">
          <mxGeometry x="360" y="680" width="40" height="40" as="geometry" />
        </mxCell>
        <mxCell id="k8iYPbFDE1tUV-0o-wm9-41" value="B&lt;sub&gt;40&lt;/sub&gt;" style="text;html=1;align=center;verticalAlign=middle;whiteSpace=wrap;rounded=0;" parent="1" vertex="1">
          <mxGeometry x="200" y="720" width="40" height="40" as="geometry" />
        </mxCell>
        <mxCell id="k8iYPbFDE1tUV-0o-wm9-42" value="B&lt;sub&gt;41&lt;/sub&gt;" style="text;html=1;align=center;verticalAlign=middle;whiteSpace=wrap;rounded=0;" parent="1" vertex="1">
          <mxGeometry x="240" y="720" width="40" height="40" as="geometry" />
        </mxCell>
        <mxCell id="k8iYPbFDE1tUV-0o-wm9-43" value="B&lt;sub&gt;42&lt;/sub&gt;" style="text;html=1;align=center;verticalAlign=middle;whiteSpace=wrap;rounded=0;" parent="1" vertex="1">
          <mxGeometry x="280" y="720" width="40" height="40" as="geometry" />
        </mxCell>
        <mxCell id="k8iYPbFDE1tUV-0o-wm9-44" value="B&lt;sub&gt;43&lt;/sub&gt;" style="text;html=1;align=center;verticalAlign=middle;whiteSpace=wrap;rounded=0;" parent="1" vertex="1">
          <mxGeometry x="320" y="720" width="40" height="40" as="geometry" />
        </mxCell>
        <mxCell id="k8iYPbFDE1tUV-0o-wm9-45" value="B&lt;sub&gt;44&lt;/sub&gt;" style="text;html=1;align=center;verticalAlign=middle;whiteSpace=wrap;rounded=0;" parent="1" vertex="1">
          <mxGeometry x="360" y="720" width="40" height="40" as="geometry" />
        </mxCell>
        <mxCell id="k8iYPbFDE1tUV-0o-wm9-46" value="A&lt;sub&gt;00&lt;/sub&gt;" style="text;html=1;align=center;verticalAlign=middle;whiteSpace=wrap;rounded=0;" parent="1" vertex="1">
          <mxGeometry x="200" y="200" width="40" height="40" as="geometry" />
        </mxCell>
        <mxCell id="k8iYPbFDE1tUV-0o-wm9-47" value="A&lt;sub&gt;01&lt;/sub&gt;" style="text;html=1;align=center;verticalAlign=middle;whiteSpace=wrap;rounded=0;" parent="1" vertex="1">
          <mxGeometry x="240" y="200" width="40" height="40" as="geometry" />
        </mxCell>
        <mxCell id="k8iYPbFDE1tUV-0o-wm9-48" value="A&lt;sub&gt;02&lt;/sub&gt;" style="text;html=1;align=center;verticalAlign=middle;whiteSpace=wrap;rounded=0;" parent="1" vertex="1">
          <mxGeometry x="280" y="200" width="40" height="40" as="geometry" />
        </mxCell>
        <mxCell id="k8iYPbFDE1tUV-0o-wm9-49" value="A&lt;sub&gt;03&lt;/sub&gt;" style="text;html=1;align=center;verticalAlign=middle;whiteSpace=wrap;rounded=0;" parent="1" vertex="1">
          <mxGeometry x="320" y="200" width="40" height="40" as="geometry" />
        </mxCell>
        <mxCell id="k8iYPbFDE1tUV-0o-wm9-50" value="A&lt;sub&gt;04&lt;/sub&gt;" style="text;html=1;align=center;verticalAlign=middle;whiteSpace=wrap;rounded=0;" parent="1" vertex="1">
          <mxGeometry x="360" y="200" width="40" height="40" as="geometry" />
        </mxCell>
        <mxCell id="k8iYPbFDE1tUV-0o-wm9-51" value="A&lt;sub&gt;10&lt;/sub&gt;" style="text;html=1;align=center;verticalAlign=middle;whiteSpace=wrap;rounded=0;" parent="1" vertex="1">
          <mxGeometry x="200" y="240" width="40" height="40" as="geometry" />
        </mxCell>
        <mxCell id="k8iYPbFDE1tUV-0o-wm9-52" value="A&lt;sub&gt;11&lt;/sub&gt;" style="text;html=1;align=center;verticalAlign=middle;whiteSpace=wrap;rounded=0;" parent="1" vertex="1">
          <mxGeometry x="240" y="240" width="40" height="40" as="geometry" />
        </mxCell>
        <mxCell id="k8iYPbFDE1tUV-0o-wm9-53" value="A&lt;sub&gt;12&lt;/sub&gt;" style="text;html=1;align=center;verticalAlign=middle;whiteSpace=wrap;rounded=0;" parent="1" vertex="1">
          <mxGeometry x="280" y="240" width="40" height="40" as="geometry" />
        </mxCell>
        <mxCell id="k8iYPbFDE1tUV-0o-wm9-54" value="A&lt;sub&gt;13&lt;/sub&gt;" style="text;html=1;align=center;verticalAlign=middle;whiteSpace=wrap;rounded=0;" parent="1" vertex="1">
          <mxGeometry x="320" y="240" width="40" height="40" as="geometry" />
        </mxCell>
        <mxCell id="k8iYPbFDE1tUV-0o-wm9-55" value="A&lt;sub&gt;14&lt;/sub&gt;" style="text;html=1;align=center;verticalAlign=middle;whiteSpace=wrap;rounded=0;" parent="1" vertex="1">
          <mxGeometry x="360" y="240" width="40" height="40" as="geometry" />
        </mxCell>
        <mxCell id="k8iYPbFDE1tUV-0o-wm9-56" value="A&lt;sub&gt;20&lt;/sub&gt;" style="text;html=1;align=center;verticalAlign=middle;whiteSpace=wrap;rounded=0;" parent="1" vertex="1">
          <mxGeometry x="200" y="280" width="40" height="40" as="geometry" />
        </mxCell>
        <mxCell id="k8iYPbFDE1tUV-0o-wm9-57" value="A&lt;sub&gt;21&lt;/sub&gt;" style="text;html=1;align=center;verticalAlign=middle;whiteSpace=wrap;rounded=0;" parent="1" vertex="1">
          <mxGeometry x="240" y="280" width="40" height="40" as="geometry" />
        </mxCell>
        <mxCell id="k8iYPbFDE1tUV-0o-wm9-58" value="A&lt;sub&gt;22&lt;/sub&gt;" style="text;html=1;align=center;verticalAlign=middle;whiteSpace=wrap;rounded=0;" parent="1" vertex="1">
          <mxGeometry x="280" y="280" width="40" height="40" as="geometry" />
        </mxCell>
        <mxCell id="k8iYPbFDE1tUV-0o-wm9-59" value="A&lt;sub&gt;23&lt;/sub&gt;" style="text;html=1;align=center;verticalAlign=middle;whiteSpace=wrap;rounded=0;" parent="1" vertex="1">
          <mxGeometry x="320" y="280" width="40" height="40" as="geometry" />
        </mxCell>
        <mxCell id="k8iYPbFDE1tUV-0o-wm9-60" value="A&lt;sub&gt;24&lt;/sub&gt;" style="text;html=1;align=center;verticalAlign=middle;whiteSpace=wrap;rounded=0;" parent="1" vertex="1">
          <mxGeometry x="360" y="280" width="40" height="40" as="geometry" />
        </mxCell>
        <mxCell id="k8iYPbFDE1tUV-0o-wm9-61" value="A&lt;sub&gt;30&lt;/sub&gt;" style="text;html=1;align=center;verticalAlign=middle;whiteSpace=wrap;rounded=0;" parent="1" vertex="1">
          <mxGeometry x="200" y="320" width="40" height="40" as="geometry" />
        </mxCell>
        <mxCell id="k8iYPbFDE1tUV-0o-wm9-62" value="A&lt;sub&gt;31&lt;/sub&gt;" style="text;html=1;align=center;verticalAlign=middle;whiteSpace=wrap;rounded=0;" parent="1" vertex="1">
          <mxGeometry x="240" y="320" width="40" height="40" as="geometry" />
        </mxCell>
        <mxCell id="k8iYPbFDE1tUV-0o-wm9-63" value="A&lt;sub&gt;32&lt;/sub&gt;" style="text;html=1;align=center;verticalAlign=middle;whiteSpace=wrap;rounded=0;" parent="1" vertex="1">
          <mxGeometry x="280" y="320" width="40" height="40" as="geometry" />
        </mxCell>
        <mxCell id="k8iYPbFDE1tUV-0o-wm9-64" value="A&lt;sub&gt;33&lt;/sub&gt;" style="text;html=1;align=center;verticalAlign=middle;whiteSpace=wrap;rounded=0;" parent="1" vertex="1">
          <mxGeometry x="320" y="320" width="40" height="40" as="geometry" />
        </mxCell>
        <mxCell id="k8iYPbFDE1tUV-0o-wm9-65" value="A&lt;sub&gt;34&lt;/sub&gt;" style="text;html=1;align=center;verticalAlign=middle;whiteSpace=wrap;rounded=0;" parent="1" vertex="1">
          <mxGeometry x="360" y="320" width="40" height="40" as="geometry" />
        </mxCell>
        <mxCell id="k8iYPbFDE1tUV-0o-wm9-66" value="A&lt;sub&gt;40&lt;/sub&gt;" style="text;html=1;align=center;verticalAlign=middle;whiteSpace=wrap;rounded=0;" parent="1" vertex="1">
          <mxGeometry x="200" y="360" width="40" height="40" as="geometry" />
        </mxCell>
        <mxCell id="k8iYPbFDE1tUV-0o-wm9-67" value="A&lt;sub&gt;41&lt;/sub&gt;" style="text;html=1;align=center;verticalAlign=middle;whiteSpace=wrap;rounded=0;" parent="1" vertex="1">
          <mxGeometry x="240" y="360" width="40" height="40" as="geometry" />
        </mxCell>
        <mxCell id="k8iYPbFDE1tUV-0o-wm9-68" value="A&lt;sub&gt;42&lt;/sub&gt;" style="text;html=1;align=center;verticalAlign=middle;whiteSpace=wrap;rounded=0;" parent="1" vertex="1">
          <mxGeometry x="280" y="360" width="40" height="40" as="geometry" />
        </mxCell>
        <mxCell id="k8iYPbFDE1tUV-0o-wm9-69" value="A&lt;sub&gt;43&lt;/sub&gt;" style="text;html=1;align=center;verticalAlign=middle;whiteSpace=wrap;rounded=0;" parent="1" vertex="1">
          <mxGeometry x="320" y="360" width="40" height="40" as="geometry" />
        </mxCell>
        <mxCell id="k8iYPbFDE1tUV-0o-wm9-70" value="A&lt;sub&gt;44&lt;/sub&gt;" style="text;html=1;align=center;verticalAlign=middle;whiteSpace=wrap;rounded=0;" parent="1" vertex="1">
          <mxGeometry x="360" y="360" width="40" height="40" as="geometry" />
        </mxCell>
        <mxCell id="k8iYPbFDE1tUV-0o-wm9-71" value="" style="shape=flexArrow;endArrow=classic;html=1;rounded=0;" parent="1" edge="1">
          <mxGeometry width="50" height="50" relative="1" as="geometry">
            <mxPoint x="440" y="299.71" as="sourcePoint" />
            <mxPoint x="500" y="299.71" as="targetPoint" />
          </mxGeometry>
        </mxCell>
        <mxCell id="k8iYPbFDE1tUV-0o-wm9-72" value="" style="shape=flexArrow;endArrow=classic;html=1;rounded=0;fillColor=default;" parent="1" edge="1">
          <mxGeometry width="50" height="50" relative="1" as="geometry">
            <mxPoint x="440" y="659.71" as="sourcePoint" />
            <mxPoint x="500" y="659.71" as="targetPoint" />
          </mxGeometry>
        </mxCell>
        <mxCell id="k8iYPbFDE1tUV-0o-wm9-107" value="" style="rounded=0;whiteSpace=wrap;html=1;fillColor=#fff2cc;strokeColor=#000000;" parent="1" vertex="1">
          <mxGeometry x="540" y="200" width="200" height="200" as="geometry" />
        </mxCell>
        <mxCell id="k8iYPbFDE1tUV-0o-wm9-108" value="" style="rounded=0;whiteSpace=wrap;html=1;fillColor=#f8cecc;strokeColor=#000000;" parent="1" vertex="1">
          <mxGeometry x="540" y="200" width="120" height="120" as="geometry" />
        </mxCell>
        <mxCell id="k8iYPbFDE1tUV-0o-wm9-109" value="" style="rounded=0;whiteSpace=wrap;html=1;fillColor=#d5e8d4;strokeColor=#000000;" parent="1" vertex="1">
          <mxGeometry x="660" y="200" width="80" height="120" as="geometry" />
        </mxCell>
        <mxCell id="k8iYPbFDE1tUV-0o-wm9-110" value="" style="rounded=0;whiteSpace=wrap;html=1;fillColor=#dae8fc;strokeColor=#000000;" parent="1" vertex="1">
          <mxGeometry x="540" y="320" width="120" height="80" as="geometry" />
        </mxCell>
        <mxCell id="k8iYPbFDE1tUV-0o-wm9-111" value="A&lt;sub&gt;00&lt;/sub&gt;" style="text;html=1;align=center;verticalAlign=middle;whiteSpace=wrap;rounded=0;" parent="1" vertex="1">
          <mxGeometry x="540" y="200" width="40" height="40" as="geometry" />
        </mxCell>
        <mxCell id="k8iYPbFDE1tUV-0o-wm9-112" value="A&lt;sub&gt;01&lt;/sub&gt;" style="text;html=1;align=center;verticalAlign=middle;whiteSpace=wrap;rounded=0;" parent="1" vertex="1">
          <mxGeometry x="580" y="200" width="40" height="40" as="geometry" />
        </mxCell>
        <mxCell id="k8iYPbFDE1tUV-0o-wm9-113" value="A&lt;sub&gt;10&lt;/sub&gt;" style="text;html=1;align=center;verticalAlign=middle;whiteSpace=wrap;rounded=0;" parent="1" vertex="1">
          <mxGeometry x="540" y="240" width="40" height="40" as="geometry" />
        </mxCell>
        <mxCell id="k8iYPbFDE1tUV-0o-wm9-114" value="A&lt;sub&gt;11&lt;/sub&gt;" style="text;html=1;align=center;verticalAlign=middle;whiteSpace=wrap;rounded=0;" parent="1" vertex="1">
          <mxGeometry x="580" y="240" width="40" height="40" as="geometry" />
        </mxCell>
        <mxCell id="k8iYPbFDE1tUV-0o-wm9-115" value="A&lt;sub&gt;04&lt;/sub&gt;" style="text;html=1;align=center;verticalAlign=middle;whiteSpace=wrap;rounded=0;" parent="1" vertex="1">
          <mxGeometry x="620" y="200" width="40" height="40" as="geometry" />
        </mxCell>
        <mxCell id="k8iYPbFDE1tUV-0o-wm9-116" value="A&lt;sub&gt;14&lt;/sub&gt;" style="text;html=1;align=center;verticalAlign=middle;whiteSpace=wrap;rounded=0;" parent="1" vertex="1">
          <mxGeometry x="620" y="240" width="40" height="40" as="geometry" />
        </mxCell>
        <mxCell id="k8iYPbFDE1tUV-0o-wm9-117" value="A&lt;sub&gt;44&lt;/sub&gt;" style="text;html=1;align=center;verticalAlign=middle;whiteSpace=wrap;rounded=0;" parent="1" vertex="1">
          <mxGeometry x="620" y="280" width="40" height="40" as="geometry" />
        </mxCell>
        <mxCell id="k8iYPbFDE1tUV-0o-wm9-118" value="A&lt;sub&gt;40&lt;/sub&gt;" style="text;html=1;align=center;verticalAlign=middle;whiteSpace=wrap;rounded=0;" parent="1" vertex="1">
          <mxGeometry x="540" y="280" width="40" height="40" as="geometry" />
        </mxCell>
        <mxCell id="k8iYPbFDE1tUV-0o-wm9-119" value="A&lt;sub&gt;41&lt;/sub&gt;" style="text;html=1;align=center;verticalAlign=middle;whiteSpace=wrap;rounded=0;" parent="1" vertex="1">
          <mxGeometry x="580" y="280" width="40" height="40" as="geometry" />
        </mxCell>
        <mxCell id="k8iYPbFDE1tUV-0o-wm9-126" value="A&lt;sub&gt;02&lt;/sub&gt;" style="text;html=1;align=center;verticalAlign=middle;whiteSpace=wrap;rounded=0;" parent="1" vertex="1">
          <mxGeometry x="660" y="200" width="40" height="40" as="geometry" />
        </mxCell>
        <mxCell id="k8iYPbFDE1tUV-0o-wm9-127" value="A&lt;sub&gt;03&lt;/sub&gt;" style="text;html=1;align=center;verticalAlign=middle;whiteSpace=wrap;rounded=0;" parent="1" vertex="1">
          <mxGeometry x="700" y="200" width="40" height="40" as="geometry" />
        </mxCell>
        <mxCell id="k8iYPbFDE1tUV-0o-wm9-128" value="A&lt;sub&gt;12&lt;/sub&gt;" style="text;html=1;align=center;verticalAlign=middle;whiteSpace=wrap;rounded=0;" parent="1" vertex="1">
          <mxGeometry x="660" y="240" width="40" height="40" as="geometry" />
        </mxCell>
        <mxCell id="k8iYPbFDE1tUV-0o-wm9-129" value="A&lt;sub&gt;13&lt;/sub&gt;" style="text;html=1;align=center;verticalAlign=middle;whiteSpace=wrap;rounded=0;" parent="1" vertex="1">
          <mxGeometry x="700" y="240" width="40" height="40" as="geometry" />
        </mxCell>
        <mxCell id="k8iYPbFDE1tUV-0o-wm9-130" value="A&lt;sub&gt;42&lt;/sub&gt;" style="text;html=1;align=center;verticalAlign=middle;whiteSpace=wrap;rounded=0;" parent="1" vertex="1">
          <mxGeometry x="660" y="280" width="40" height="40" as="geometry" />
        </mxCell>
        <mxCell id="k8iYPbFDE1tUV-0o-wm9-131" value="A&lt;sub&gt;43&lt;/sub&gt;" style="text;html=1;align=center;verticalAlign=middle;whiteSpace=wrap;rounded=0;" parent="1" vertex="1">
          <mxGeometry x="700" y="280" width="40" height="40" as="geometry" />
        </mxCell>
        <mxCell id="k8iYPbFDE1tUV-0o-wm9-132" value="A&lt;sub&gt;22&lt;/sub&gt;" style="text;html=1;align=center;verticalAlign=middle;whiteSpace=wrap;rounded=0;" parent="1" vertex="1">
          <mxGeometry x="660" y="320" width="40" height="40" as="geometry" />
        </mxCell>
        <mxCell id="k8iYPbFDE1tUV-0o-wm9-133" value="A&lt;sub&gt;23&lt;/sub&gt;" style="text;html=1;align=center;verticalAlign=middle;whiteSpace=wrap;rounded=0;" parent="1" vertex="1">
          <mxGeometry x="700" y="320" width="40" height="40" as="geometry" />
        </mxCell>
        <mxCell id="k8iYPbFDE1tUV-0o-wm9-134" value="A&lt;sub&gt;32&lt;/sub&gt;" style="text;html=1;align=center;verticalAlign=middle;whiteSpace=wrap;rounded=0;" parent="1" vertex="1">
          <mxGeometry x="660" y="360" width="40" height="40" as="geometry" />
        </mxCell>
        <mxCell id="k8iYPbFDE1tUV-0o-wm9-135" value="A&lt;sub&gt;33&lt;/sub&gt;" style="text;html=1;align=center;verticalAlign=middle;whiteSpace=wrap;rounded=0;" parent="1" vertex="1">
          <mxGeometry x="700" y="360" width="40" height="40" as="geometry" />
        </mxCell>
        <mxCell id="k8iYPbFDE1tUV-0o-wm9-136" value="A&lt;sub&gt;20&lt;/sub&gt;" style="text;html=1;align=center;verticalAlign=middle;whiteSpace=wrap;rounded=0;" parent="1" vertex="1">
          <mxGeometry x="540" y="320" width="40" height="40" as="geometry" />
        </mxCell>
        <mxCell id="k8iYPbFDE1tUV-0o-wm9-137" value="A&lt;sub&gt;21&lt;/sub&gt;" style="text;html=1;align=center;verticalAlign=middle;whiteSpace=wrap;rounded=0;" parent="1" vertex="1">
          <mxGeometry x="580" y="320" width="40" height="40" as="geometry" />
        </mxCell>
        <mxCell id="k8iYPbFDE1tUV-0o-wm9-138" value="A&lt;sub&gt;24&lt;/sub&gt;" style="text;html=1;align=center;verticalAlign=middle;whiteSpace=wrap;rounded=0;" parent="1" vertex="1">
          <mxGeometry x="620" y="320" width="40" height="40" as="geometry" />
        </mxCell>
        <mxCell id="k8iYPbFDE1tUV-0o-wm9-139" value="A&lt;sub&gt;30&lt;/sub&gt;" style="text;html=1;align=center;verticalAlign=middle;whiteSpace=wrap;rounded=0;" parent="1" vertex="1">
          <mxGeometry x="540" y="360" width="40" height="40" as="geometry" />
        </mxCell>
        <mxCell id="k8iYPbFDE1tUV-0o-wm9-140" value="A&lt;sub&gt;31&lt;/sub&gt;" style="text;html=1;align=center;verticalAlign=middle;whiteSpace=wrap;rounded=0;" parent="1" vertex="1">
          <mxGeometry x="580" y="360" width="40" height="40" as="geometry" />
        </mxCell>
        <mxCell id="k8iYPbFDE1tUV-0o-wm9-141" value="A&lt;sub&gt;34&lt;/sub&gt;" style="text;html=1;align=center;verticalAlign=middle;whiteSpace=wrap;rounded=0;" parent="1" vertex="1">
          <mxGeometry x="620" y="360" width="40" height="40" as="geometry" />
        </mxCell>
        <mxCell id="k8iYPbFDE1tUV-0o-wm9-152" value="" style="rounded=0;whiteSpace=wrap;html=1;fillColor=#ffe6cc;strokeColor=#000000;" parent="1" vertex="1">
          <mxGeometry x="540" y="560" width="200" height="200" as="geometry" />
        </mxCell>
        <mxCell id="k8iYPbFDE1tUV-0o-wm9-154" value="" style="rounded=0;whiteSpace=wrap;html=1;fillColor=#b0e3e6;strokeColor=#000000;" parent="1" vertex="1">
          <mxGeometry x="540" y="680" width="200" height="80" as="geometry" />
        </mxCell>
        <mxCell id="k8iYPbFDE1tUV-0o-wm9-155" value="B&lt;sub&gt;00&lt;/sub&gt;" style="text;html=1;align=center;verticalAlign=middle;whiteSpace=wrap;rounded=0;" parent="1" vertex="1">
          <mxGeometry x="540" y="560" width="40" height="40" as="geometry" />
        </mxCell>
        <mxCell id="k8iYPbFDE1tUV-0o-wm9-156" value="B&lt;sub&gt;01&lt;/sub&gt;" style="text;html=1;align=center;verticalAlign=middle;whiteSpace=wrap;rounded=0;" parent="1" vertex="1">
          <mxGeometry x="580" y="560" width="40" height="40" as="geometry" />
        </mxCell>
        <mxCell id="k8iYPbFDE1tUV-0o-wm9-157" value="B&lt;sub&gt;02&lt;/sub&gt;" style="text;html=1;align=center;verticalAlign=middle;whiteSpace=wrap;rounded=0;" parent="1" vertex="1">
          <mxGeometry x="620" y="560" width="40" height="40" as="geometry" />
        </mxCell>
        <mxCell id="k8iYPbFDE1tUV-0o-wm9-158" value="B&lt;sub&gt;03&lt;/sub&gt;" style="text;html=1;align=center;verticalAlign=middle;whiteSpace=wrap;rounded=0;" parent="1" vertex="1">
          <mxGeometry x="660" y="560" width="40" height="40" as="geometry" />
        </mxCell>
        <mxCell id="k8iYPbFDE1tUV-0o-wm9-159" value="B&lt;sub&gt;04&lt;/sub&gt;" style="text;html=1;align=center;verticalAlign=middle;whiteSpace=wrap;rounded=0;" parent="1" vertex="1">
          <mxGeometry x="700" y="560" width="40" height="40" as="geometry" />
        </mxCell>
        <mxCell id="k8iYPbFDE1tUV-0o-wm9-160" value="B&lt;sub&gt;10&lt;/sub&gt;" style="text;html=1;align=center;verticalAlign=middle;whiteSpace=wrap;rounded=0;" parent="1" vertex="1">
          <mxGeometry x="540" y="600" width="40" height="40" as="geometry" />
        </mxCell>
        <mxCell id="k8iYPbFDE1tUV-0o-wm9-161" value="B&lt;sub&gt;11&lt;/sub&gt;" style="text;html=1;align=center;verticalAlign=middle;whiteSpace=wrap;rounded=0;" parent="1" vertex="1">
          <mxGeometry x="580" y="600" width="40" height="40" as="geometry" />
        </mxCell>
        <mxCell id="k8iYPbFDE1tUV-0o-wm9-162" value="B&lt;sub&gt;12&lt;/sub&gt;" style="text;html=1;align=center;verticalAlign=middle;whiteSpace=wrap;rounded=0;" parent="1" vertex="1">
          <mxGeometry x="620" y="600" width="40" height="40" as="geometry" />
        </mxCell>
        <mxCell id="k8iYPbFDE1tUV-0o-wm9-163" value="B&lt;sub&gt;13&lt;/sub&gt;" style="text;html=1;align=center;verticalAlign=middle;whiteSpace=wrap;rounded=0;" parent="1" vertex="1">
          <mxGeometry x="660" y="600" width="40" height="40" as="geometry" />
        </mxCell>
        <mxCell id="k8iYPbFDE1tUV-0o-wm9-164" value="B&lt;sub&gt;14&lt;/sub&gt;" style="text;html=1;align=center;verticalAlign=middle;whiteSpace=wrap;rounded=0;" parent="1" vertex="1">
          <mxGeometry x="700" y="600" width="40" height="40" as="geometry" />
        </mxCell>
        <mxCell id="k8iYPbFDE1tUV-0o-wm9-165" value="B&lt;sub&gt;20&lt;/sub&gt;" style="text;html=1;align=center;verticalAlign=middle;whiteSpace=wrap;rounded=0;" parent="1" vertex="1">
          <mxGeometry x="540" y="680" width="40" height="40" as="geometry" />
        </mxCell>
        <mxCell id="k8iYPbFDE1tUV-0o-wm9-166" value="B&lt;sub&gt;21&lt;/sub&gt;" style="text;html=1;align=center;verticalAlign=middle;whiteSpace=wrap;rounded=0;" parent="1" vertex="1">
          <mxGeometry x="580" y="680" width="40" height="40" as="geometry" />
        </mxCell>
        <mxCell id="k8iYPbFDE1tUV-0o-wm9-167" value="B&lt;sub&gt;22&lt;/sub&gt;" style="text;html=1;align=center;verticalAlign=middle;whiteSpace=wrap;rounded=0;" parent="1" vertex="1">
          <mxGeometry x="620" y="680" width="40" height="40" as="geometry" />
        </mxCell>
        <mxCell id="k8iYPbFDE1tUV-0o-wm9-168" value="B&lt;sub&gt;23&lt;/sub&gt;" style="text;html=1;align=center;verticalAlign=middle;whiteSpace=wrap;rounded=0;" parent="1" vertex="1">
          <mxGeometry x="660" y="680" width="40" height="40" as="geometry" />
        </mxCell>
        <mxCell id="k8iYPbFDE1tUV-0o-wm9-169" value="B&lt;sub&gt;24&lt;/sub&gt;" style="text;html=1;align=center;verticalAlign=middle;whiteSpace=wrap;rounded=0;" parent="1" vertex="1">
          <mxGeometry x="700" y="680" width="40" height="40" as="geometry" />
        </mxCell>
        <mxCell id="k8iYPbFDE1tUV-0o-wm9-170" value="B&lt;sub&gt;30&lt;/sub&gt;" style="text;html=1;align=center;verticalAlign=middle;whiteSpace=wrap;rounded=0;" parent="1" vertex="1">
          <mxGeometry x="540" y="720" width="40" height="40" as="geometry" />
        </mxCell>
        <mxCell id="k8iYPbFDE1tUV-0o-wm9-171" value="B&lt;sub&gt;31&lt;/sub&gt;" style="text;html=1;align=center;verticalAlign=middle;whiteSpace=wrap;rounded=0;" parent="1" vertex="1">
          <mxGeometry x="580" y="720" width="40" height="40" as="geometry" />
        </mxCell>
        <mxCell id="k8iYPbFDE1tUV-0o-wm9-172" value="B&lt;sub&gt;32&lt;/sub&gt;" style="text;html=1;align=center;verticalAlign=middle;whiteSpace=wrap;rounded=0;" parent="1" vertex="1">
          <mxGeometry x="620" y="720" width="40" height="40" as="geometry" />
        </mxCell>
        <mxCell id="k8iYPbFDE1tUV-0o-wm9-173" value="B&lt;sub&gt;33&lt;/sub&gt;" style="text;html=1;align=center;verticalAlign=middle;whiteSpace=wrap;rounded=0;" parent="1" vertex="1">
          <mxGeometry x="660" y="720" width="40" height="40" as="geometry" />
        </mxCell>
        <mxCell id="k8iYPbFDE1tUV-0o-wm9-174" value="B&lt;sub&gt;34&lt;/sub&gt;" style="text;html=1;align=center;verticalAlign=middle;whiteSpace=wrap;rounded=0;" parent="1" vertex="1">
          <mxGeometry x="700" y="720" width="40" height="40" as="geometry" />
        </mxCell>
        <mxCell id="k8iYPbFDE1tUV-0o-wm9-175" value="B&lt;sub&gt;40&lt;/sub&gt;" style="text;html=1;align=center;verticalAlign=middle;whiteSpace=wrap;rounded=0;" parent="1" vertex="1">
          <mxGeometry x="540" y="640" width="40" height="40" as="geometry" />
        </mxCell>
        <mxCell id="k8iYPbFDE1tUV-0o-wm9-176" value="B&lt;sub&gt;41&lt;/sub&gt;" style="text;html=1;align=center;verticalAlign=middle;whiteSpace=wrap;rounded=0;" parent="1" vertex="1">
          <mxGeometry x="580" y="640" width="40" height="40" as="geometry" />
        </mxCell>
        <mxCell id="k8iYPbFDE1tUV-0o-wm9-177" value="B&lt;sub&gt;42&lt;/sub&gt;" style="text;html=1;align=center;verticalAlign=middle;whiteSpace=wrap;rounded=0;" parent="1" vertex="1">
          <mxGeometry x="620" y="640" width="40" height="40" as="geometry" />
        </mxCell>
        <mxCell id="k8iYPbFDE1tUV-0o-wm9-178" value="B&lt;sub&gt;43&lt;/sub&gt;" style="text;html=1;align=center;verticalAlign=middle;whiteSpace=wrap;rounded=0;" parent="1" vertex="1">
          <mxGeometry x="660" y="640" width="40" height="40" as="geometry" />
        </mxCell>
        <mxCell id="k8iYPbFDE1tUV-0o-wm9-179" value="B&lt;sub&gt;44&lt;/sub&gt;" style="text;html=1;align=center;verticalAlign=middle;whiteSpace=wrap;rounded=0;" parent="1" vertex="1">
          <mxGeometry x="700" y="640" width="40" height="40" as="geometry" />
        </mxCell>
        <mxCell id="k8iYPbFDE1tUV-0o-wm9-180" value="P&lt;sub&gt;00&lt;/sub&gt;" style="text;html=1;align=center;verticalAlign=middle;whiteSpace=wrap;rounded=0;" parent="1" vertex="1">
          <mxGeometry x="200" y="160" width="80" height="40" as="geometry" />
        </mxCell>
        <mxCell id="k8iYPbFDE1tUV-0o-wm9-181" value="P&lt;sub&gt;01&lt;/sub&gt;" style="text;html=1;align=center;verticalAlign=middle;whiteSpace=wrap;rounded=0;" parent="1" vertex="1">
          <mxGeometry x="280" y="160" width="80" height="40" as="geometry" />
        </mxCell>
        <mxCell id="k8iYPbFDE1tUV-0o-wm9-182" value="P&lt;sub&gt;00&lt;/sub&gt;" style="text;html=1;align=center;verticalAlign=middle;whiteSpace=wrap;rounded=0;" parent="1" vertex="1">
          <mxGeometry x="360" y="160" width="40" height="40" as="geometry" />
        </mxCell>
        <mxCell id="k8iYPbFDE1tUV-0o-wm9-183" value="P&lt;sub&gt;10&lt;/sub&gt;" style="text;html=1;align=center;verticalAlign=middle;whiteSpace=wrap;rounded=0;" parent="1" vertex="1">
          <mxGeometry x="400" y="280" width="40" height="80" as="geometry" />
        </mxCell>
        <mxCell id="k8iYPbFDE1tUV-0o-wm9-184" value="P&lt;sub&gt;10&lt;/sub&gt;" style="text;html=1;align=center;verticalAlign=middle;whiteSpace=wrap;rounded=0;" parent="1" vertex="1">
          <mxGeometry x="160" y="280" width="40" height="80" as="geometry" />
        </mxCell>
        <mxCell id="k8iYPbFDE1tUV-0o-wm9-186" value="P&lt;sub&gt;00&lt;/sub&gt;" style="text;html=1;align=center;verticalAlign=middle;whiteSpace=wrap;rounded=0;" parent="1" vertex="1">
          <mxGeometry x="160" y="360" width="40" height="40" as="geometry" />
        </mxCell>
        <mxCell id="k8iYPbFDE1tUV-0o-wm9-187" value="P&lt;sub&gt;01&lt;/sub&gt;" style="text;html=1;align=center;verticalAlign=middle;whiteSpace=wrap;rounded=0;" parent="1" vertex="1">
          <mxGeometry x="280" y="400" width="80" height="40" as="geometry" />
        </mxCell>
        <mxCell id="k8iYPbFDE1tUV-0o-wm9-188" value="P&lt;sub&gt;00&lt;/sub&gt;" style="text;html=1;align=center;verticalAlign=middle;whiteSpace=wrap;rounded=0;" parent="1" vertex="1">
          <mxGeometry x="160" y="200" width="40" height="80" as="geometry" />
        </mxCell>
        <mxCell id="k8iYPbFDE1tUV-0o-wm9-189" value="P&lt;sub&gt;00&lt;/sub&gt;" style="text;html=1;align=center;verticalAlign=middle;whiteSpace=wrap;rounded=0;" parent="1" vertex="1">
          <mxGeometry x="400" y="200" width="40" height="80" as="geometry" />
        </mxCell>
        <mxCell id="k8iYPbFDE1tUV-0o-wm9-190" value="P&lt;sub&gt;00&lt;/sub&gt;" style="text;html=1;align=center;verticalAlign=middle;whiteSpace=wrap;rounded=0;" parent="1" vertex="1">
          <mxGeometry x="200" y="400" width="80" height="40" as="geometry" />
        </mxCell>
        <mxCell id="k8iYPbFDE1tUV-0o-wm9-191" value="P&lt;sub&gt;00&lt;/sub&gt;" style="text;html=1;align=center;verticalAlign=middle;whiteSpace=wrap;rounded=0;" parent="1" vertex="1">
          <mxGeometry x="360" y="400" width="40" height="40" as="geometry" />
        </mxCell>
        <mxCell id="k8iYPbFDE1tUV-0o-wm9-192" value="P&lt;sub&gt;00&lt;/sub&gt;" style="text;html=1;align=center;verticalAlign=middle;whiteSpace=wrap;rounded=0;" parent="1" vertex="1">
          <mxGeometry x="400" y="360" width="40" height="40" as="geometry" />
        </mxCell>
        <mxCell id="k8iYPbFDE1tUV-0o-wm9-193" value="P&lt;sub&gt;11&lt;/sub&gt;" style="text;html=1;align=center;verticalAlign=middle;whiteSpace=wrap;rounded=0;" parent="1" vertex="1">
          <mxGeometry x="300" y="300" width="40" height="40" as="geometry" />
        </mxCell>
        <mxCell id="k8iYPbFDE1tUV-0o-wm9-194" value="P&lt;sub&gt;00&lt;/sub&gt;" style="text;html=1;align=center;verticalAlign=middle;whiteSpace=wrap;rounded=0;" parent="1" vertex="1">
          <mxGeometry x="540" y="160" width="120" height="40" as="geometry" />
        </mxCell>
        <mxCell id="k8iYPbFDE1tUV-0o-wm9-197" value="P&lt;sub&gt;01&lt;/sub&gt;" style="text;html=1;align=center;verticalAlign=middle;whiteSpace=wrap;rounded=0;" parent="1" vertex="1">
          <mxGeometry x="660" y="160" width="80" height="40" as="geometry" />
        </mxCell>
        <mxCell id="k8iYPbFDE1tUV-0o-wm9-201" value="P&lt;sub&gt;11&lt;/sub&gt;" style="text;html=1;align=center;verticalAlign=middle;whiteSpace=wrap;rounded=0;" parent="1" vertex="1">
          <mxGeometry x="660" y="400" width="80" height="40" as="geometry" />
        </mxCell>
        <mxCell id="k8iYPbFDE1tUV-0o-wm9-203" value="P&lt;sub&gt;10&lt;/sub&gt;" style="text;html=1;align=center;verticalAlign=middle;whiteSpace=wrap;rounded=0;" parent="1" vertex="1">
          <mxGeometry x="540" y="400" width="120" height="40" as="geometry" />
        </mxCell>
        <mxCell id="k8iYPbFDE1tUV-0o-wm9-204" value="" style="rounded=0;whiteSpace=wrap;html=1;fillColor=#d0cee2;strokeColor=#000000;" parent="1" vertex="1">
          <mxGeometry x="200" y="920" width="200" height="200" as="geometry" />
        </mxCell>
        <mxCell id="k8iYPbFDE1tUV-0o-wm9-205" value="" style="rounded=0;whiteSpace=wrap;html=1;fillColor=#f9f7ed;strokeColor=#000000;" parent="1" vertex="1">
          <mxGeometry x="200" y="1000" width="200" height="80" as="geometry" />
        </mxCell>
        <mxCell id="k8iYPbFDE1tUV-0o-wm9-206" value="" style="rounded=0;whiteSpace=wrap;html=1;fillColor=#d0cee2;strokeColor=#000000;" parent="1" vertex="1">
          <mxGeometry x="200" y="1080" width="200" height="40" as="geometry" />
        </mxCell>
        <mxCell id="k8iYPbFDE1tUV-0o-wm9-207" value="C&lt;sub&gt;00&lt;/sub&gt;" style="text;html=1;align=center;verticalAlign=middle;whiteSpace=wrap;rounded=0;" parent="1" vertex="1">
          <mxGeometry x="200" y="920" width="40" height="40" as="geometry" />
        </mxCell>
        <mxCell id="k8iYPbFDE1tUV-0o-wm9-208" value="C&lt;sub&gt;01&lt;/sub&gt;" style="text;html=1;align=center;verticalAlign=middle;whiteSpace=wrap;rounded=0;" parent="1" vertex="1">
          <mxGeometry x="240" y="920" width="40" height="40" as="geometry" />
        </mxCell>
        <mxCell id="k8iYPbFDE1tUV-0o-wm9-209" value="C&lt;sub&gt;02&lt;/sub&gt;" style="text;html=1;align=center;verticalAlign=middle;whiteSpace=wrap;rounded=0;" parent="1" vertex="1">
          <mxGeometry x="280" y="920" width="40" height="40" as="geometry" />
        </mxCell>
        <mxCell id="k8iYPbFDE1tUV-0o-wm9-210" value="C&lt;sub&gt;03&lt;/sub&gt;" style="text;html=1;align=center;verticalAlign=middle;whiteSpace=wrap;rounded=0;" parent="1" vertex="1">
          <mxGeometry x="320" y="920" width="40" height="40" as="geometry" />
        </mxCell>
        <mxCell id="k8iYPbFDE1tUV-0o-wm9-211" value="C&lt;sub&gt;04&lt;/sub&gt;" style="text;html=1;align=center;verticalAlign=middle;whiteSpace=wrap;rounded=0;" parent="1" vertex="1">
          <mxGeometry x="360" y="920" width="40" height="40" as="geometry" />
        </mxCell>
        <mxCell id="k8iYPbFDE1tUV-0o-wm9-212" value="C&lt;sub&gt;10&lt;/sub&gt;" style="text;html=1;align=center;verticalAlign=middle;whiteSpace=wrap;rounded=0;" parent="1" vertex="1">
          <mxGeometry x="200" y="960" width="40" height="40" as="geometry" />
        </mxCell>
        <mxCell id="k8iYPbFDE1tUV-0o-wm9-213" value="C&lt;sub&gt;11&lt;/sub&gt;" style="text;html=1;align=center;verticalAlign=middle;whiteSpace=wrap;rounded=0;" parent="1" vertex="1">
          <mxGeometry x="240" y="960" width="40" height="40" as="geometry" />
        </mxCell>
        <mxCell id="k8iYPbFDE1tUV-0o-wm9-214" value="C&lt;sub&gt;12&lt;/sub&gt;" style="text;html=1;align=center;verticalAlign=middle;whiteSpace=wrap;rounded=0;" parent="1" vertex="1">
          <mxGeometry x="280" y="960" width="40" height="40" as="geometry" />
        </mxCell>
        <mxCell id="k8iYPbFDE1tUV-0o-wm9-215" value="C&lt;sub&gt;13&lt;/sub&gt;" style="text;html=1;align=center;verticalAlign=middle;whiteSpace=wrap;rounded=0;" parent="1" vertex="1">
          <mxGeometry x="320" y="960" width="40" height="40" as="geometry" />
        </mxCell>
        <mxCell id="k8iYPbFDE1tUV-0o-wm9-216" value="C&lt;sub&gt;14&lt;/sub&gt;" style="text;html=1;align=center;verticalAlign=middle;whiteSpace=wrap;rounded=0;" parent="1" vertex="1">
          <mxGeometry x="360" y="960" width="40" height="40" as="geometry" />
        </mxCell>
        <mxCell id="k8iYPbFDE1tUV-0o-wm9-217" value="C&lt;sub&gt;20&lt;/sub&gt;" style="text;html=1;align=center;verticalAlign=middle;whiteSpace=wrap;rounded=0;" parent="1" vertex="1">
          <mxGeometry x="200" y="1000" width="40" height="40" as="geometry" />
        </mxCell>
        <mxCell id="k8iYPbFDE1tUV-0o-wm9-218" value="C&lt;sub&gt;21&lt;/sub&gt;" style="text;html=1;align=center;verticalAlign=middle;whiteSpace=wrap;rounded=0;" parent="1" vertex="1">
          <mxGeometry x="240" y="1000" width="40" height="40" as="geometry" />
        </mxCell>
        <mxCell id="k8iYPbFDE1tUV-0o-wm9-219" value="C&lt;sub&gt;22&lt;/sub&gt;" style="text;html=1;align=center;verticalAlign=middle;whiteSpace=wrap;rounded=0;" parent="1" vertex="1">
          <mxGeometry x="280" y="1000" width="40" height="40" as="geometry" />
        </mxCell>
        <mxCell id="k8iYPbFDE1tUV-0o-wm9-220" value="C&lt;sub&gt;23&lt;/sub&gt;" style="text;html=1;align=center;verticalAlign=middle;whiteSpace=wrap;rounded=0;" parent="1" vertex="1">
          <mxGeometry x="320" y="1000" width="40" height="40" as="geometry" />
        </mxCell>
        <mxCell id="k8iYPbFDE1tUV-0o-wm9-221" value="C&lt;sub&gt;24&lt;/sub&gt;" style="text;html=1;align=center;verticalAlign=middle;whiteSpace=wrap;rounded=0;" parent="1" vertex="1">
          <mxGeometry x="360" y="1000" width="40" height="40" as="geometry" />
        </mxCell>
        <mxCell id="k8iYPbFDE1tUV-0o-wm9-222" value="C&lt;sub&gt;30&lt;/sub&gt;" style="text;html=1;align=center;verticalAlign=middle;whiteSpace=wrap;rounded=0;" parent="1" vertex="1">
          <mxGeometry x="200" y="1040" width="40" height="40" as="geometry" />
        </mxCell>
        <mxCell id="k8iYPbFDE1tUV-0o-wm9-223" value="C&lt;sub&gt;31&lt;/sub&gt;" style="text;html=1;align=center;verticalAlign=middle;whiteSpace=wrap;rounded=0;" parent="1" vertex="1">
          <mxGeometry x="240" y="1040" width="40" height="40" as="geometry" />
        </mxCell>
        <mxCell id="k8iYPbFDE1tUV-0o-wm9-224" value="C&lt;sub&gt;32&lt;/sub&gt;" style="text;html=1;align=center;verticalAlign=middle;whiteSpace=wrap;rounded=0;" parent="1" vertex="1">
          <mxGeometry x="280" y="1040" width="40" height="40" as="geometry" />
        </mxCell>
        <mxCell id="k8iYPbFDE1tUV-0o-wm9-225" value="C&lt;sub&gt;33&lt;/sub&gt;" style="text;html=1;align=center;verticalAlign=middle;whiteSpace=wrap;rounded=0;" parent="1" vertex="1">
          <mxGeometry x="320" y="1040" width="40" height="40" as="geometry" />
        </mxCell>
        <mxCell id="k8iYPbFDE1tUV-0o-wm9-226" value="C&lt;sub&gt;34&lt;/sub&gt;" style="text;html=1;align=center;verticalAlign=middle;whiteSpace=wrap;rounded=0;" parent="1" vertex="1">
          <mxGeometry x="360" y="1040" width="40" height="40" as="geometry" />
        </mxCell>
        <mxCell id="k8iYPbFDE1tUV-0o-wm9-227" value="C&lt;sub&gt;40&lt;/sub&gt;" style="text;html=1;align=center;verticalAlign=middle;whiteSpace=wrap;rounded=0;" parent="1" vertex="1">
          <mxGeometry x="200" y="1080" width="40" height="40" as="geometry" />
        </mxCell>
        <mxCell id="k8iYPbFDE1tUV-0o-wm9-228" value="C&lt;sub&gt;41&lt;/sub&gt;" style="text;html=1;align=center;verticalAlign=middle;whiteSpace=wrap;rounded=0;" parent="1" vertex="1">
          <mxGeometry x="240" y="1080" width="40" height="40" as="geometry" />
        </mxCell>
        <mxCell id="k8iYPbFDE1tUV-0o-wm9-229" value="C&lt;sub&gt;42&lt;/sub&gt;" style="text;html=1;align=center;verticalAlign=middle;whiteSpace=wrap;rounded=0;" parent="1" vertex="1">
          <mxGeometry x="280" y="1080" width="40" height="40" as="geometry" />
        </mxCell>
        <mxCell id="k8iYPbFDE1tUV-0o-wm9-230" value="C&lt;sub&gt;43&lt;/sub&gt;" style="text;html=1;align=center;verticalAlign=middle;whiteSpace=wrap;rounded=0;" parent="1" vertex="1">
          <mxGeometry x="320" y="1080" width="40" height="40" as="geometry" />
        </mxCell>
        <mxCell id="k8iYPbFDE1tUV-0o-wm9-231" value="C&lt;sub&gt;44&lt;/sub&gt;" style="text;html=1;align=center;verticalAlign=middle;whiteSpace=wrap;rounded=0;" parent="1" vertex="1">
          <mxGeometry x="360" y="1080" width="40" height="40" as="geometry" />
        </mxCell>
        <mxCell id="k8iYPbFDE1tUV-0o-wm9-232" value="" style="shape=flexArrow;endArrow=classic;html=1;rounded=0;" parent="1" edge="1">
          <mxGeometry width="50" height="50" relative="1" as="geometry">
            <mxPoint x="440" y="1019.71" as="sourcePoint" />
            <mxPoint x="500" y="1019.71" as="targetPoint" />
          </mxGeometry>
        </mxCell>
        <mxCell id="k8iYPbFDE1tUV-0o-wm9-233" value="" style="rounded=0;whiteSpace=wrap;html=1;fillColor=#d0cee2;strokeColor=#000000;" parent="1" vertex="1">
          <mxGeometry x="540" y="920" width="200" height="200" as="geometry" />
        </mxCell>
        <mxCell id="k8iYPbFDE1tUV-0o-wm9-234" value="" style="rounded=0;whiteSpace=wrap;html=1;" parent="1" vertex="1">
          <mxGeometry x="540" y="1040" width="200" height="80" as="geometry" />
        </mxCell>
        <mxCell id="k8iYPbFDE1tUV-0o-wm9-260" value="C&lt;sub&gt;00&lt;/sub&gt;" style="text;html=1;align=center;verticalAlign=middle;whiteSpace=wrap;rounded=0;" parent="1" vertex="1">
          <mxGeometry x="540" y="920" width="40" height="40" as="geometry" />
        </mxCell>
        <mxCell id="k8iYPbFDE1tUV-0o-wm9-261" value="C&lt;sub&gt;01&lt;/sub&gt;" style="text;html=1;align=center;verticalAlign=middle;whiteSpace=wrap;rounded=0;" parent="1" vertex="1">
          <mxGeometry x="580" y="920" width="40" height="40" as="geometry" />
        </mxCell>
        <mxCell id="k8iYPbFDE1tUV-0o-wm9-262" value="C&lt;sub&gt;02&lt;/sub&gt;" style="text;html=1;align=center;verticalAlign=middle;whiteSpace=wrap;rounded=0;" parent="1" vertex="1">
          <mxGeometry x="620" y="920" width="40" height="40" as="geometry" />
        </mxCell>
        <mxCell id="k8iYPbFDE1tUV-0o-wm9-263" value="C&lt;sub&gt;03&lt;/sub&gt;" style="text;html=1;align=center;verticalAlign=middle;whiteSpace=wrap;rounded=0;" parent="1" vertex="1">
          <mxGeometry x="660" y="920" width="40" height="40" as="geometry" />
        </mxCell>
        <mxCell id="k8iYPbFDE1tUV-0o-wm9-264" value="C&lt;sub&gt;04&lt;/sub&gt;" style="text;html=1;align=center;verticalAlign=middle;whiteSpace=wrap;rounded=0;" parent="1" vertex="1">
          <mxGeometry x="700" y="920" width="40" height="40" as="geometry" />
        </mxCell>
        <mxCell id="k8iYPbFDE1tUV-0o-wm9-265" value="C&lt;sub&gt;10&lt;/sub&gt;" style="text;html=1;align=center;verticalAlign=middle;whiteSpace=wrap;rounded=0;" parent="1" vertex="1">
          <mxGeometry x="540" y="960" width="40" height="40" as="geometry" />
        </mxCell>
        <mxCell id="k8iYPbFDE1tUV-0o-wm9-266" value="C&lt;sub&gt;11&lt;/sub&gt;" style="text;html=1;align=center;verticalAlign=middle;whiteSpace=wrap;rounded=0;" parent="1" vertex="1">
          <mxGeometry x="580" y="960" width="40" height="40" as="geometry" />
        </mxCell>
        <mxCell id="k8iYPbFDE1tUV-0o-wm9-267" value="C&lt;sub&gt;12&lt;/sub&gt;" style="text;html=1;align=center;verticalAlign=middle;whiteSpace=wrap;rounded=0;" parent="1" vertex="1">
          <mxGeometry x="620" y="960" width="40" height="40" as="geometry" />
        </mxCell>
        <mxCell id="k8iYPbFDE1tUV-0o-wm9-268" value="C&lt;sub&gt;13&lt;/sub&gt;" style="text;html=1;align=center;verticalAlign=middle;whiteSpace=wrap;rounded=0;" parent="1" vertex="1">
          <mxGeometry x="660" y="960" width="40" height="40" as="geometry" />
        </mxCell>
        <mxCell id="k8iYPbFDE1tUV-0o-wm9-269" value="C&lt;sub&gt;14&lt;/sub&gt;" style="text;html=1;align=center;verticalAlign=middle;whiteSpace=wrap;rounded=0;" parent="1" vertex="1">
          <mxGeometry x="700" y="960" width="40" height="40" as="geometry" />
        </mxCell>
        <mxCell id="k8iYPbFDE1tUV-0o-wm9-271" value="C&lt;sub&gt;40&lt;/sub&gt;" style="text;html=1;align=center;verticalAlign=middle;whiteSpace=wrap;rounded=0;" parent="1" vertex="1">
          <mxGeometry x="540" y="1000" width="40" height="40" as="geometry" />
        </mxCell>
        <mxCell id="k8iYPbFDE1tUV-0o-wm9-272" value="C&lt;sub&gt;41&lt;/sub&gt;" style="text;html=1;align=center;verticalAlign=middle;whiteSpace=wrap;rounded=0;" parent="1" vertex="1">
          <mxGeometry x="580" y="1000" width="40" height="40" as="geometry" />
        </mxCell>
        <mxCell id="k8iYPbFDE1tUV-0o-wm9-273" value="C&lt;sub&gt;42&lt;/sub&gt;" style="text;html=1;align=center;verticalAlign=middle;whiteSpace=wrap;rounded=0;" parent="1" vertex="1">
          <mxGeometry x="620" y="1000" width="40" height="40" as="geometry" />
        </mxCell>
        <mxCell id="k8iYPbFDE1tUV-0o-wm9-274" value="C&lt;sub&gt;43&lt;/sub&gt;" style="text;html=1;align=center;verticalAlign=middle;whiteSpace=wrap;rounded=0;" parent="1" vertex="1">
          <mxGeometry x="660" y="1000" width="40" height="40" as="geometry" />
        </mxCell>
        <mxCell id="k8iYPbFDE1tUV-0o-wm9-275" value="C&lt;sub&gt;44&lt;/sub&gt;" style="text;html=1;align=center;verticalAlign=middle;whiteSpace=wrap;rounded=0;" parent="1" vertex="1">
          <mxGeometry x="700" y="1000" width="40" height="40" as="geometry" />
        </mxCell>
        <mxCell id="k8iYPbFDE1tUV-0o-wm9-276" value="" style="rounded=0;whiteSpace=wrap;html=1;fillColor=#f9f7ed;strokeColor=#000000;" parent="1" vertex="1">
          <mxGeometry x="540" y="1040" width="200" height="80" as="geometry" />
        </mxCell>
        <mxCell id="k8iYPbFDE1tUV-0o-wm9-277" value="C&lt;sub&gt;20&lt;/sub&gt;" style="text;html=1;align=center;verticalAlign=middle;whiteSpace=wrap;rounded=0;" parent="1" vertex="1">
          <mxGeometry x="540" y="1040" width="40" height="40" as="geometry" />
        </mxCell>
        <mxCell id="k8iYPbFDE1tUV-0o-wm9-278" value="C&lt;sub&gt;21&lt;/sub&gt;" style="text;html=1;align=center;verticalAlign=middle;whiteSpace=wrap;rounded=0;" parent="1" vertex="1">
          <mxGeometry x="580" y="1040" width="40" height="40" as="geometry" />
        </mxCell>
        <mxCell id="k8iYPbFDE1tUV-0o-wm9-279" value="C&lt;sub&gt;22&lt;/sub&gt;" style="text;html=1;align=center;verticalAlign=middle;whiteSpace=wrap;rounded=0;" parent="1" vertex="1">
          <mxGeometry x="620" y="1040" width="40" height="40" as="geometry" />
        </mxCell>
        <mxCell id="k8iYPbFDE1tUV-0o-wm9-280" value="C&lt;sub&gt;23&lt;/sub&gt;" style="text;html=1;align=center;verticalAlign=middle;whiteSpace=wrap;rounded=0;" parent="1" vertex="1">
          <mxGeometry x="660" y="1040" width="40" height="40" as="geometry" />
        </mxCell>
        <mxCell id="k8iYPbFDE1tUV-0o-wm9-281" value="C&lt;sub&gt;24&lt;/sub&gt;" style="text;html=1;align=center;verticalAlign=middle;whiteSpace=wrap;rounded=0;" parent="1" vertex="1">
          <mxGeometry x="700" y="1040" width="40" height="40" as="geometry" />
        </mxCell>
        <mxCell id="k8iYPbFDE1tUV-0o-wm9-282" value="C&lt;sub&gt;30&lt;/sub&gt;" style="text;html=1;align=center;verticalAlign=middle;whiteSpace=wrap;rounded=0;" parent="1" vertex="1">
          <mxGeometry x="540" y="1080" width="40" height="40" as="geometry" />
        </mxCell>
        <mxCell id="k8iYPbFDE1tUV-0o-wm9-283" value="C&lt;sub&gt;31&lt;/sub&gt;" style="text;html=1;align=center;verticalAlign=middle;whiteSpace=wrap;rounded=0;" parent="1" vertex="1">
          <mxGeometry x="580" y="1080" width="40" height="40" as="geometry" />
        </mxCell>
        <mxCell id="k8iYPbFDE1tUV-0o-wm9-284" value="C&lt;sub&gt;32&lt;/sub&gt;" style="text;html=1;align=center;verticalAlign=middle;whiteSpace=wrap;rounded=0;" parent="1" vertex="1">
          <mxGeometry x="620" y="1080" width="40" height="40" as="geometry" />
        </mxCell>
        <mxCell id="k8iYPbFDE1tUV-0o-wm9-285" value="C&lt;sub&gt;33&lt;/sub&gt;" style="text;html=1;align=center;verticalAlign=middle;whiteSpace=wrap;rounded=0;" parent="1" vertex="1">
          <mxGeometry x="660" y="1080" width="40" height="40" as="geometry" />
        </mxCell>
        <mxCell id="k8iYPbFDE1tUV-0o-wm9-286" value="C&lt;sub&gt;34&lt;/sub&gt;" style="text;html=1;align=center;verticalAlign=middle;whiteSpace=wrap;rounded=0;" parent="1" vertex="1">
          <mxGeometry x="700" y="1080" width="40" height="40" as="geometry" />
        </mxCell>
        <mxCell id="k8iYPbFDE1tUV-0o-wm9-288" value="P00, P10" style="text;html=1;align=center;verticalAlign=middle;whiteSpace=wrap;rounded=0;" parent="1" vertex="1">
          <mxGeometry x="120" y="560" width="80" height="80" as="geometry" />
        </mxCell>
        <mxCell id="k8iYPbFDE1tUV-0o-wm9-290" value="P00, P10" style="text;html=1;align=center;verticalAlign=middle;whiteSpace=wrap;rounded=0;" parent="1" vertex="1">
          <mxGeometry x="120" y="720" width="80" height="40" as="geometry" />
        </mxCell>
        <mxCell id="k8iYPbFDE1tUV-0o-wm9-291" value="P01, P11" style="text;html=1;align=center;verticalAlign=middle;whiteSpace=wrap;rounded=0;" parent="1" vertex="1">
          <mxGeometry x="120" y="640" width="80" height="80" as="geometry" />
        </mxCell>
        <mxCell id="k8iYPbFDE1tUV-0o-wm9-292" value="P00, P10" style="text;html=1;align=center;verticalAlign=middle;whiteSpace=wrap;rounded=0;" parent="1" vertex="1">
          <mxGeometry x="540" y="520" width="200" height="40" as="geometry" />
        </mxCell>
        <mxCell id="k8iYPbFDE1tUV-0o-wm9-293" value="P01, P11" style="text;html=1;align=center;verticalAlign=middle;whiteSpace=wrap;rounded=0;" parent="1" vertex="1">
          <mxGeometry x="540" y="760" width="200" height="40" as="geometry" />
        </mxCell>
        <mxCell id="k8iYPbFDE1tUV-0o-wm9-294" value="P00, P01" style="text;html=1;align=center;verticalAlign=middle;whiteSpace=wrap;rounded=0;" parent="1" vertex="1">
          <mxGeometry x="120" y="920" width="80" height="80" as="geometry" />
        </mxCell>
        <mxCell id="k8iYPbFDE1tUV-0o-wm9-295" value="P00, P01" style="text;html=1;align=center;verticalAlign=middle;whiteSpace=wrap;rounded=0;" parent="1" vertex="1">
          <mxGeometry x="120" y="1080" width="80" height="40" as="geometry" />
        </mxCell>
        <mxCell id="k8iYPbFDE1tUV-0o-wm9-296" value="P10, P11" style="text;html=1;align=center;verticalAlign=middle;whiteSpace=wrap;rounded=0;" parent="1" vertex="1">
          <mxGeometry x="120" y="1000" width="80" height="80" as="geometry" />
        </mxCell>
        <mxCell id="k8iYPbFDE1tUV-0o-wm9-298" value="P00, P01" style="text;html=1;align=center;verticalAlign=middle;whiteSpace=wrap;rounded=0;" parent="1" vertex="1">
          <mxGeometry x="540" y="880" width="200" height="40" as="geometry" />
        </mxCell>
        <mxCell id="k8iYPbFDE1tUV-0o-wm9-299" value="P10, P11" style="text;html=1;align=center;verticalAlign=middle;whiteSpace=wrap;rounded=0;" parent="1" vertex="1">
          <mxGeometry x="540" y="1120" width="200" height="40" as="geometry" />
        </mxCell>
      </root>
    </mxGraphModel>
  </diagram>
</mxfile>
